<?xml version="1.0" encoding="utf-8"?>
<!-- Generator: Adobe Illustrator 16.0.0, SVG Export Plug-In . SVG Version: 6.00 Build 0)  -->
<!DOCTYPE svg PUBLIC "-//W3C//DTD SVG 1.1//EN" "http://www.w3.org/Graphics/SVG/1.1/DTD/svg11.dtd">
<svg version="1.1" id="Layer_1" xmlns="http://www.w3.org/2000/svg" xmlns:xlink="http://www.w3.org/1999/xlink" x="0px" y="0px"
	 width="410px" height="187px" viewBox="0 0 410 187" enable-background="new 0 0 410 187" xml:space="preserve">
<g>
	<g>
		<path fill-rule="evenodd" clip-rule="evenodd" fill="#C0C0C0" d="M192.644,31.123c-0.08,0.88-0.189,1.758-0.232,2.641
			c-0.359,7.332-0.689,14.666-1.074,21.996c-0.063,1.195-0.17,2.444-0.594,3.537c-0.227,0.586-1.15,1.231-1.795,1.27
			c-2.501,0.146-5.018,0.017-7.525,0.076c-1.486,0.036-2.009-0.633-1.936-2.042c0.206-3.964,0.31-7.935,0.569-11.896
			c0.242-3.699,0.71-7.383,0.94-11.082c0.42-6.717,0.722-13.441,1.109-20.161c0.099-1.721,0.186-3.47,0.589-5.13
			c0.153-0.629,1.158-1.448,1.815-1.485c2.847-0.163,5.72-0.213,8.558,0.017c0.842,0.068,1.984,1.017,2.336,1.84
			c3.786,8.875,7.438,17.807,11.144,26.717c0.086,0.207,0.346,0.34,0.75,0.719c3.053-7.191,6.041-14.237,9.033-21.283
			c0.668-1.572,1.559-3.087,1.963-4.723c0.688-2.78,2.266-3.832,5.035-3.378c0.758,0.124,1.555,0.019,2.334,0.019
			c5.928,0.004,5.828,0.012,6.225,5.992c0.789,11.867,1.703,23.725,2.559,35.587c0.191,2.664,0.354,5.331,0.539,7.995
			c0.109,1.609-0.492,2.397-2.238,2.305c-2.072-0.107-4.162-0.144-6.229,0.01c-1.945,0.146-2.727-0.891-2.848-2.514
			c-0.574-7.561-1.057-15.13-1.6-22.694c-0.1-1.364-0.338-2.718-0.598-4.737c-2.072,4.514-3.893,8.461-5.695,12.414
			c-1.459,3.193-2.809,6.443-4.412,9.561c-0.402,0.779-1.572,1.58-2.436,1.635c-6.074,0.387-6.055,0.315-8.407-5.398
			c-2.45-5.951-4.954-11.881-7.435-17.818C192.94,31.113,192.791,31.118,192.644,31.123z"/>
		<path fill-rule="evenodd" clip-rule="evenodd" fill="#C0C0C0" d="M221.839,102.869c2.232-10.544,4.375-20.447,6.383-30.379
			c0.365-1.807,1.148-2.508,2.92-2.449c2.16,0.07,4.326,0.032,6.488,0.012c1.541-0.015,2.146,0.379,1.686,2.166
			c-2.299,8.914-4.432,17.869-6.666,26.8c-1.609,6.435-3.344,12.839-4.895,19.287c-0.412,1.716-1.283,2.574-2.953,2.551
			c-9.439-0.133-7.941,1.446-10.035-7.281c-1.939-8.081-4.039-16.125-6.531-24.231c-1.297,5.206-2.605,10.408-3.885,15.616
			c-1.059,4.306-2.121,8.61-3.104,12.933c-0.475,2.088-1.599,3.103-3.793,2.998c-1.9-0.091-3.813-0.112-5.709,0.01
			c-1.732,0.111-2.51-0.742-2.887-2.26c-3.761-15.137-7.535-30.271-11.271-45.413c-0.222-0.897-0.157-1.864-0.252-3.154
			c3.166,0,6.184-0.192,9.147,0.122c0.841,0.089,1.983,1.547,2.212,2.555c2.205,9.716,4.243,19.471,6.336,29.213
			c0.034,0.157,0.152,0.296,0.201,0.386c2.535-9.133,5.035-18.32,7.646-27.478c1.359-4.771,3.711-6.079,8.441-4.695
			c0.762,0.223,1.553,1.33,1.801,2.182c2.674,9.239,5.242,18.511,7.846,27.771C221.167,100.846,221.417,101.551,221.839,102.869z"/>
		<path fill-rule="evenodd" clip-rule="evenodd" fill="#C0C0C0" d="M209.544,154.062c9.088,5.393,10.545,15.948,3.248,22.493
			c-3.549,3.184-8.059,4.246-12.604,4.486c-5.949,0.313-11.927,0.037-17.891,0.102c-1.642,0.019-2.314-0.482-2.31-2.215
			c0.046-15.475,0.046-30.949,0-46.423c-0.004-1.723,0.648-2.242,2.299-2.227c6.31,0.063,12.626-0.139,18.931,0.076
			c5.166,0.176,9.873,1.934,12.789,6.475C217.294,141.948,216.851,149.14,209.544,154.062z M191.515,171.329
			c2.854,0,5.443,0.138,8.012-0.033c3.531-0.235,5.639-2.208,5.936-5.22c0.303-3.048-1.473-6.051-4.563-6.506
			c-3.069-0.452-6.258-0.1-9.385-0.1C191.515,163.438,191.515,167.212,191.515,171.329z M191.409,151.083
			c2.115,0,3.997,0.002,5.88-0.001c0.519-0.001,1.046,0.043,1.554-0.03c2.578-0.374,4.838-2.514,5.063-4.753
			c0.293-2.926-0.842-5.381-3.375-5.927c-2.945-0.635-6.021-0.66-9.121-0.958C191.409,143.588,191.409,147.125,191.409,151.083z"/>
		<path fill-rule="evenodd" clip-rule="evenodd" fill="#C0C0C0" d="M374.462,70.059c0,6.504,0,12.701,0,19.057
			c5.68,0,11.002,0,16.742,0c0-6.271,0-12.533,0-19.051c3.59,0,6.773-0.106,9.939,0.096c0.58,0.037,1.484,1.291,1.547,2.041
			c0.207,2.494,0.111,5.014,0.111,7.523c-0.004,12.465-0.012,24.928-0.025,37.392c-0.004,3.665-0.104,3.753-3.857,3.757
			c-1.385,0.001-2.771,0.002-4.154,0c-3.377-0.005-3.676-0.238-3.705-3.685c-0.041-5.188,0.018-10.378,0.031-15.566
			c0.002-0.424,0-0.847,0-1.396c-5.537,0-10.959,0-16.555,0c0,5.772-0.074,11.535,0.033,17.294c0.047,2.416-0.742,3.55-3.279,3.382
			c-2.068-0.137-4.154-0.028-6.23-0.031c-1.57-0.002-2.266-0.657-2.26-2.356c0.051-15.407,0.045-30.813,0.006-46.221
			c-0.004-1.678,0.596-2.316,2.287-2.262C368.022,70.127,370.958,70.059,374.462,70.059z"/>
		<path fill-rule="evenodd" clip-rule="evenodd" fill="#C0C0C0" d="M243.286,130.303c6.418,0.078,6.18-1.034,8.543,6.169
			c4.598,14.02,9.215,28.032,13.941,42.008c0.686,2.028-0.125,2.543-1.748,2.61c-2.246,0.094-4.502,0.104-6.746-0.004
			c-1.871-0.091-3.02-0.99-3.561-3.009c-1.846-6.89-1.924-6.866-8.992-6.876c-2.596-0.003-5.193,0.048-7.783-0.063
			c-1.271-0.055-1.842,0.287-2.092,1.604c-0.332,1.751-1.025,3.43-1.436,5.17c-0.531,2.248-1.832,3.317-4.17,3.222
			c-1.9-0.077-3.807,0.008-5.709-0.023c-2.672-0.045-3.221-0.773-2.395-3.25c4.5-13.498,9.018-26.99,13.531-40.484
			c0.135-0.404,0.285-0.804,0.426-1.206C237.392,129.596,236.417,130.329,243.286,130.303z M237.653,161.332
			c3.879,0,7.551,0,11.391,0c-1.824-5.815-3.596-11.462-5.533-17.64C241.464,149.859,239.571,155.558,237.653,161.332z"/>
		<path fill-rule="evenodd" clip-rule="evenodd" fill="#C0C0C0" d="M251.276,111.006c-0.621,2.29-1.262,4.405-1.76,6.554
			c-0.525,2.263-1.871,3.346-4.178,3.317c-1.902-0.022-3.809,0.054-5.709-0.02c-2.461-0.097-2.965-0.778-2.227-3.024
			c4.959-15.079,9.949-30.148,14.902-45.229c0.596-1.811,1.734-2.617,3.635-2.561c2.248,0.064,4.502,0.099,6.746-0.01
			c2.252-0.109,3.457,0.854,4.158,2.989c4.396,13.365,8.875,26.704,13.326,40.052c0.566,1.702,1.016,3.455,1.723,5.098
			c0.76,1.768-0.076,2.546-1.582,2.643c-2.412,0.154-4.871,0.249-7.25-0.074c-0.982-0.133-1.906-1.326-2.672-2.199
			c-0.482-0.549-0.67-1.382-0.906-2.113c-1.762-5.42-1.756-5.422-7.508-5.422C258.517,111.006,255.06,111.006,251.276,111.006z
			 M265.327,101.491c-1.857-5.871-3.658-11.555-5.457-17.238c-0.166-0.003-0.332-0.006-0.496-0.009
			c-1.809,5.687-3.617,11.374-5.484,17.247C257.956,101.491,261.479,101.491,265.327,101.491z"/>
		<path fill-rule="evenodd" clip-rule="evenodd" fill="#C0C0C0" d="M324.421,140.872c0,3.028,0,5.939,0,9.167
			c4.74,0,9.383,0.105,14.016-0.045c2.236-0.073,3.033,0.66,3.055,2.902c0.068,7.491,0.129,7.491-7.434,7.492
			c-3.109,0-6.217,0-9.744,0c0,1.663,0,3.263,0,4.862c0,1.55,0,3.1,0,5.085c3.445,0,6.775,0.003,10.105-0.001
			c2.334-0.003,4.67-0.004,7.004-0.026c1.482-0.014,2.205,0.62,2.16,2.178c-0.064,2.158-0.064,4.323-0.002,6.482
			c0.043,1.575-0.707,2.155-2.188,2.153c-8.992-0.013-17.986-0.019-26.979,0.006c-1.994,0.005-1.863-1.413-1.871-2.678
			c-0.041-5.273-0.033-10.547-0.041-15.821c-0.012-9.597-0.018-19.193-0.031-28.791c-0.004-3.509,0.012-3.534,3.367-3.535
			c8.303-0.001,16.605,0.062,24.904-0.042c2.119-0.027,2.854,0.604,2.887,2.765c0.117,7.582,0.188,7.578-7.359,7.586
			c-3.717,0.003-7.436,0.021-11.152,0.041C324.96,140.653,324.802,140.748,324.421,140.872z"/>
		<path fill-rule="evenodd" clip-rule="evenodd" fill="#C0C0C0" d="M273.181,168.379c5.074,1.058,9.604,2.139,14.188,2.868
			c1.314,0.209,2.891-0.385,4.172-0.983c3.457-1.612,3.834-5.365,0.539-7.228c-3.391-1.916-7.107-3.264-10.713-4.785
			c-5.824-2.46-9.98-6.211-10.578-12.957c-0.721-8.148,4.373-13.984,11.695-15.397c6.449-1.245,12.805-0.098,18.842,2.62
			c1.705,0.767,2.119,1.792,1.334,3.469c-0.863,1.847-1.15,4.544-2.566,5.373c-1.229,0.721-3.664-0.764-5.6-1.065
			c-2.283-0.355-4.6-0.666-6.9-0.669c-2.379-0.002-4.826,1.983-5.121,4c-0.375,2.56,1.291,4.02,3.328,4.939
			c2.566,1.157,5.268,2.014,7.873,3.089c5.143,2.121,9.717,4.988,11.35,10.719c2.268,7.953-2.367,15.819-10.541,18.217
			c-7.283,2.137-14.252,1.02-20.918-2.297c-3.303-1.643-3.549-2.539-2.162-6.061C271.989,170.737,272.747,169.31,273.181,168.379z"
			/>
		<path fill-rule="evenodd" clip-rule="evenodd" fill="#C0C0C0" d="M356.159,75.363c-1.383,2.369-2.785,4.776-3.957,6.785
			c-3.367-0.855-6.195-2.073-9.072-2.208c-7.322-0.345-11.678,3.049-13.738,10.188c-1.76,6.094-0.818,11.813,3.393,16.596
			c4.186,4.755,10.508,5.755,16.479,3.088c0.998-0.445,1.973-0.948,3.143-1.514c1.221,2.074,2.494,3.978,3.457,6.025
			c0.314,0.668,0.113,2.252-0.35,2.503c-3.045,1.65-6.098,3.864-9.385,4.386c-10.73,1.7-19.664-1.364-25.775-11.492
			c-8.148-13.505-3.963-34.975,15.578-39.995C342.927,67.928,352.659,70.398,356.159,75.363z"/>
		<path fill-rule="evenodd" clip-rule="evenodd" fill="#C0C0C0" d="M236.931,8.776c3.928,0,7.393-0.167,10.824,0.106
			c0.963,0.077,2.172,1.268,2.676,2.25c3.154,6.157,6.143,12.4,9.361,18.972c0.494-0.871,0.906-1.53,1.254-2.221
			c2.766-5.475,5.617-10.91,8.227-16.458c0.963-2.047,2.279-2.754,4.406-2.677c2.758,0.101,5.521,0.024,8.789,0.024
			c-0.438,1.25-0.672,2.279-1.137,3.188c-4.914,9.582-9.891,19.13-14.77,28.728c-0.557,1.093-0.855,2.421-0.895,3.651
			c-0.139,4.232-0.031,8.473-0.164,12.706c-0.107,3.427-0.367,3.581-3.785,3.583c-1.729,0-3.463-0.09-5.186,0.022
			c-1.945,0.125-2.66-0.953-2.75-2.608c-0.221-4.139-0.521-8.283-0.48-12.422c0.025-2.576-0.545-4.832-1.705-7.102
			c-4.631-9.055-9.166-18.159-13.721-27.254C237.546,10.606,237.347,9.881,236.931,8.776z"/>
		<path fill-rule="evenodd" clip-rule="evenodd" fill="#C0C0C0" d="M302.03,80.734c0,10.28,0.002,20.128-0.002,29.975
			c-0.002,2.508-0.088,5.017-0.033,7.522c0.041,1.897-0.865,2.664-2.664,2.642c-1.557-0.02-3.113-0.001-4.67-0.001
			c-4.145-0.001-4.48-0.335-4.486-4.636c-0.012-10.548-0.008-21.095-0.01-31.643c0-1.188,0-2.377,0-3.869
			c-3.203,0-6.203-0.081-9.197,0.03c-1.818,0.068-3.018-0.274-2.982-2.413c0.043-2.701,0.01-5.402,0.01-8.191
			c12.299,0,24.125,0,36.447,0c0,3.166,0.07,6.277-0.08,9.379c-0.021,0.429-1.119,1.132-1.736,1.151
			C309.19,80.794,305.749,80.734,302.03,80.734z"/>
	</g>
	<g>
		<path fill-rule="evenodd" clip-rule="evenodd" fill="#E50914" d="M59.342,142.015c3.928,0.986,7.3,2.156,10.769,2.645
			c11.889,1.675,23.494,0.83,34.231-5.146c9.962-5.544,18.07-13.083,23.816-23.018c2.533-4.379,3.37-4.674,9.136-2.451
			c-2.44,3.529-4.559,7.133-7.195,10.306c-8.357,10.058-18.702,17.389-31.042,21.852c-9.104,3.293-18.54,4.719-28.129,3.967
			c-14.73-1.153-27.846-6.509-39.296-16.042c-12.2-10.159-20.308-22.899-23.699-38.271c-4.781-21.67-0.698-41.718,12.821-59.586
			C31.608,21.922,46.122,13.138,63.598,9.925c20.307-3.732,38.979,0.751,55.542,13.451c12.674,9.72,20.872,22.337,25.079,37.643
			c3.802,13.828,3.078,27.515-1.453,41.05c-1.271,3.798-4.275,5.104-9.218,3.793c-10.143-2.693-20.248-5.527-30.376-8.278
			c-1.813-0.492-3.645-0.926-5.488-1.281c-3.689-0.712-4.461-0.327-6.117,3.201c-3.45,7.354-6.667,14.822-10.312,22.077
			C76.617,130.814,69.225,137.314,59.342,142.015z M69.453,109.845c0.207-8.982-6.735-15.114-14.709-14.938
			c-8.864,0.196-14.397,5.419-14.438,14.68c-0.04,9.062,6.063,14.697,14.245,14.711C61.859,124.31,69.695,118.938,69.453,109.845z
			 M76.313,26.645c-6.424-0.843-14.52,6.082-14.363,14.957c0.169,9.599,6.4,14.069,14.325,14.095
			c9.029,0.029,14.373-7.107,14.626-13.688C91.237,33.286,83.396,25.938,76.313,26.645z M39.648,82.94
			c8.289,0.021,13.868-5.73,14.313-13.809c0.457-8.294-6.456-15.088-13.867-14.988c-8.154,0.109-14.076,6.036-14.572,13.825
			C24.991,76.312,32.047,83.952,39.648,82.94z M113.033,82.944c7.817,0.615,14.161-6.734,14.198-14.357
			c0.034-6.883-6.628-14.748-14.066-14.486c-8.291,0.293-14.599,5.929-14.599,14.031C98.566,77.132,104.991,82.767,113.033,82.944z
			 M84.512,77.728c0.018-4.824-3.574-8.504-8.288-8.49c-4.481,0.012-8.454,3.917-8.442,8.298c0.012,4.54,3.962,8.502,8.492,8.521
			C80.812,86.074,84.494,82.351,84.512,77.728z"/>
		<path fill-rule="evenodd" clip-rule="evenodd" fill="#E50914" d="M97.441,103.83c1.769,0.701,3.287,1.206,4.691,1.931
			c0.345,0.178,0.563,1.148,0.421,1.632c-1.258,4.29-3.588,5.432-7.712,3.856c-0.298-0.114-0.775-0.441-0.75-0.605
			c0.265-1.728,0.425-3.513,1.027-5.129C95.39,104.79,96.591,104.413,97.441,103.83z"/>
		<path fill-rule="evenodd" clip-rule="evenodd" fill="#E50914" d="M96.695,119.348c-1.271,2.49-2.035,4.297-3.099,5.905
			c-0.382,0.577-1.523,1.008-2.252,0.924c-1.399-0.161-2.751-0.737-4.896-1.368c1.425-2.129,2.325-4.616,4.094-5.741
			C91.855,118.232,94.294,119.167,96.695,119.348z"/>
		<path fill-rule="evenodd" clip-rule="evenodd" fill="#E50914" d="M87.907,133.708c-0.866,1.334-1.532,2.506-2.338,3.572
			c-1.702,2.252-4.257,2.59-6.505,0.903c-0.318-0.238-0.794-0.783-0.712-0.956c0.745-1.572,1.432-3.226,2.498-4.567
			c0.461-0.579,1.84-0.799,2.683-0.62C84.997,132.35,86.369,133.095,87.907,133.708z"/>
	</g>
</g>
<g>
	<g>
		<path fill-rule="evenodd" clip-rule="evenodd" fill="#121212" d="M1098.658,43.011c-0.08,0.88-0.189,1.758-0.232,2.641
			c-0.359,7.332-0.689,14.666-1.074,21.996c-0.063,1.195-0.17,2.444-0.594,3.537c-0.227,0.586-1.15,1.231-1.795,1.27
			c-2.501,0.146-5.018,0.017-7.525,0.076c-1.486,0.036-2.009-0.633-1.936-2.042c0.205-3.964,0.31-7.935,0.568-11.896
			c0.243-3.699,0.711-7.383,0.941-11.082c0.42-6.717,0.721-13.441,1.109-20.161c0.099-1.721,0.186-3.47,0.589-5.13
			c0.153-0.629,1.158-1.448,1.815-1.485c2.847-0.163,5.72-0.213,8.558,0.017c0.842,0.068,1.984,1.017,2.336,1.84
			c3.786,8.875,7.438,17.807,11.144,26.717c0.086,0.207,0.346,0.34,0.75,0.719c3.053-7.191,6.041-14.237,9.033-21.283
			c0.668-1.572,1.559-3.087,1.963-4.723c0.688-2.78,2.266-3.832,5.035-3.378c0.758,0.124,1.555,0.019,2.334,0.019
			c5.928,0.004,5.828,0.012,6.225,5.992c0.789,11.867,1.703,23.725,2.559,35.587c0.191,2.664,0.354,5.331,0.539,7.995
			c0.109,1.609-0.492,2.397-2.238,2.305c-2.072-0.107-4.162-0.144-6.229,0.01c-1.945,0.146-2.727-0.891-2.848-2.514
			c-0.574-7.561-1.057-15.13-1.6-22.694c-0.1-1.364-0.338-2.718-0.598-4.737c-2.072,4.514-3.893,8.461-5.695,12.414
			c-1.459,3.193-2.809,6.443-4.412,9.561c-0.402,0.779-1.572,1.58-2.436,1.635c-6.074,0.387-6.055,0.315-8.407-5.398
			c-2.45-5.951-4.954-11.881-7.435-17.818C1098.955,43.001,1098.806,43.006,1098.658,43.011z"/>
		<path fill-rule="evenodd" clip-rule="evenodd" fill="#121212" d="M1127.854,114.758c2.232-10.544,4.375-20.448,6.383-30.379
			c0.365-1.807,1.148-2.508,2.92-2.449c2.16,0.07,4.326,0.032,6.488,0.012c1.541-0.015,2.146,0.379,1.686,2.166
			c-2.299,8.914-4.432,17.869-6.666,26.799c-1.609,6.436-3.344,12.84-4.895,19.287c-0.412,1.717-1.283,2.574-2.953,2.551
			c-9.439-0.133-7.941,1.447-10.035-7.281c-1.939-8.08-4.039-16.125-6.531-24.231c-1.297,5.206-2.605,10.409-3.885,15.616
			c-1.059,4.307-2.121,8.611-3.104,12.934c-0.475,2.088-1.599,3.102-3.793,2.998c-1.9-0.092-3.813-0.113-5.709,0.01
			c-1.732,0.111-2.51-0.742-2.887-2.26c-3.761-15.137-7.535-30.271-11.271-45.414c-0.223-0.897-0.158-1.864-0.252-3.154
			c3.166,0,6.184-0.192,9.147,0.122c0.841,0.089,1.983,1.547,2.212,2.555c2.205,9.716,4.243,19.471,6.336,29.213
			c0.034,0.156,0.152,0.295,0.201,0.385c2.535-9.132,5.035-18.32,7.646-27.477c1.359-4.771,3.711-6.079,8.441-4.695
			c0.762,0.223,1.553,1.33,1.801,2.182c2.674,9.239,5.242,18.511,7.846,27.77C1127.182,112.734,1127.432,113.439,1127.854,114.758z"
			/>
		<path fill-rule="evenodd" clip-rule="evenodd" fill="#121212" d="M1115.559,165.949c9.088,5.393,10.545,15.949,3.248,22.494
			c-3.549,3.184-8.059,4.246-12.604,4.486c-5.949,0.313-11.927,0.037-17.891,0.102c-1.642,0.018-2.314-0.482-2.31-2.215
			c0.046-15.475,0.046-30.949,0-46.424c-0.005-1.723,0.648-2.242,2.299-2.227c6.31,0.064,12.626-0.139,18.931,0.076
			c5.166,0.176,9.873,1.934,12.789,6.475C1123.309,153.836,1122.865,161.027,1115.559,165.949z M1097.529,183.217
			c2.854,0,5.443,0.139,8.012-0.033c3.531-0.234,5.639-2.207,5.936-5.219c0.303-3.049-1.473-6.051-4.563-6.506
			c-3.069-0.453-6.258-0.1-9.385-0.1C1097.529,175.326,1097.529,179.1,1097.529,183.217z M1097.424,162.971
			c2.115,0,3.997,0.002,5.88,0c0.519-0.002,1.046,0.043,1.554-0.031c2.578-0.373,4.838-2.514,5.063-4.752
			c0.293-2.926-0.842-5.381-3.375-5.928c-2.945-0.635-6.021-0.66-9.121-0.957C1097.424,155.477,1097.424,159.014,1097.424,162.971z"
			/>
		<path fill-rule="evenodd" clip-rule="evenodd" fill="#121212" d="M1280.477,81.947c0,6.504,0,12.701,0,19.057
			c5.68,0,11.002,0,16.742,0c0-6.271,0-12.533,0-19.051c3.59,0,6.773-0.106,9.939,0.096c0.58,0.037,1.484,1.291,1.547,2.041
			c0.207,2.494,0.111,5.014,0.111,7.523c-0.004,12.465-0.012,24.928-0.025,37.391c-0.004,3.666-0.104,3.754-3.857,3.758
			c-1.385,0-2.771,0.002-4.154,0c-3.377-0.006-3.676-0.238-3.705-3.686c-0.041-5.188,0.018-10.377,0.031-15.566
			c0.002-0.424,0-0.846,0-1.396c-5.537,0-10.959,0-16.555,0c0,5.773-0.074,11.535,0.033,17.295c0.047,2.416-0.742,3.549-3.279,3.381
			c-2.068-0.137-4.154-0.027-6.23-0.031c-1.57-0.002-2.266-0.656-2.26-2.355c0.051-15.408,0.045-30.814,0.006-46.221
			c-0.004-1.678,0.596-2.316,2.287-2.262C1274.037,82.015,1276.973,81.947,1280.477,81.947z"/>
		<path fill-rule="evenodd" clip-rule="evenodd" fill="#121212" d="M1149.301,142.191c6.418,0.078,6.18-1.035,8.543,6.168
			c4.598,14.02,9.215,28.033,13.941,42.008c0.686,2.029-0.125,2.543-1.748,2.611c-2.246,0.094-4.502,0.104-6.746-0.004
			c-1.871-0.092-3.02-0.99-3.561-3.01c-1.846-6.889-1.924-6.865-8.992-6.875c-2.596-0.004-5.193,0.047-7.783-0.063
			c-1.271-0.055-1.842,0.287-2.092,1.604c-0.332,1.75-1.025,3.43-1.436,5.17c-0.531,2.248-1.832,3.316-4.17,3.221
			c-1.9-0.076-3.807,0.008-5.709-0.023c-2.672-0.045-3.221-0.773-2.395-3.25c4.5-13.498,9.018-26.99,13.531-40.484
			c0.135-0.404,0.285-0.803,0.426-1.205C1143.406,141.484,1142.432,142.217,1149.301,142.191z M1143.668,173.221
			c3.879,0,7.551,0,11.391,0c-1.824-5.816-3.596-11.463-5.533-17.641C1147.479,161.748,1145.586,167.445,1143.668,173.221z"/>
		<path fill-rule="evenodd" clip-rule="evenodd" fill="#121212" d="M1157.291,122.895c-0.621,2.289-1.262,4.404-1.76,6.553
			c-0.525,2.264-1.871,3.346-4.178,3.318c-1.902-0.023-3.809,0.053-5.709-0.02c-2.461-0.098-2.965-0.779-2.227-3.025
			c4.959-15.078,9.949-30.148,14.902-45.229c0.596-1.811,1.734-2.617,3.635-2.561c2.248,0.064,4.502,0.099,6.746-0.01
			c2.252-0.109,3.457,0.854,4.158,2.989c4.396,13.365,8.875,26.705,13.326,40.052c0.566,1.701,1.016,3.455,1.723,5.098
			c0.76,1.768-0.076,2.545-1.582,2.643c-2.412,0.154-4.871,0.248-7.25-0.074c-0.982-0.133-1.906-1.326-2.672-2.199
			c-0.482-0.549-0.67-1.383-0.906-2.113c-1.762-5.42-1.756-5.422-7.508-5.422C1164.531,122.895,1161.074,122.895,1157.291,122.895z
			 M1171.342,113.379c-1.857-5.871-3.658-11.554-5.457-17.238c-0.166-0.003-0.332-0.006-0.496-0.009
			c-1.809,5.687-3.617,11.374-5.484,17.247C1163.971,113.379,1167.494,113.379,1171.342,113.379z"/>
		<path fill-rule="evenodd" clip-rule="evenodd" fill="#121212" d="M1230.436,152.76c0,3.029,0,5.939,0,9.168
			c4.74,0,9.383,0.105,14.016-0.045c2.236-0.074,3.033,0.66,3.055,2.902c0.068,7.49,0.129,7.49-7.434,7.492
			c-3.109,0-6.217,0-9.744,0c0,1.662,0,3.262,0,4.861c0,1.551,0,3.1,0,5.086c3.445,0,6.775,0.002,10.105-0.002
			c2.334-0.002,4.67-0.004,7.004-0.025c1.482-0.014,2.205,0.619,2.16,2.178c-0.064,2.158-0.064,4.322-0.002,6.482
			c0.043,1.574-0.707,2.154-2.188,2.152c-8.992-0.012-17.986-0.018-26.979,0.006c-1.994,0.006-1.863-1.412-1.871-2.678
			c-0.041-5.273-0.033-10.547-0.041-15.82c-0.012-9.598-0.018-19.193-0.031-28.791c-0.004-3.51,0.012-3.535,3.367-3.535
			c8.303-0.002,16.605,0.061,24.904-0.043c2.119-0.027,2.854,0.605,2.887,2.766c0.117,7.582,0.188,7.578-7.359,7.586
			c-3.717,0.002-7.436,0.02-11.152,0.041C1230.975,152.541,1230.816,152.637,1230.436,152.76z"/>
		<path fill-rule="evenodd" clip-rule="evenodd" fill="#121212" d="M1179.195,180.268c5.074,1.057,9.604,2.139,14.188,2.867
			c1.314,0.209,2.891-0.385,4.172-0.982c3.457-1.613,3.834-5.365,0.539-7.229c-3.391-1.916-7.107-3.264-10.713-4.785
			c-5.824-2.459-9.98-6.211-10.578-12.957c-0.721-8.148,4.373-13.984,11.695-15.396c6.449-1.246,12.805-0.098,18.842,2.619
			c1.705,0.768,2.119,1.793,1.334,3.469c-0.863,1.848-1.15,4.545-2.566,5.373c-1.229,0.721-3.664-0.764-5.6-1.064
			c-2.283-0.355-4.6-0.666-6.9-0.67c-2.379-0.002-4.826,1.984-5.121,4c-0.375,2.561,1.291,4.02,3.328,4.939
			c2.566,1.158,5.268,2.014,7.873,3.09c5.143,2.121,9.717,4.988,11.35,10.719c2.268,7.953-2.367,15.818-10.541,18.217
			c-7.283,2.137-14.252,1.02-20.918-2.297c-3.303-1.643-3.549-2.539-2.162-6.061
			C1178.004,182.625,1178.762,181.197,1179.195,180.268z"/>
		<path fill-rule="evenodd" clip-rule="evenodd" fill="#121212" d="M1262.174,87.251c-1.383,2.369-2.785,4.776-3.957,6.785
			c-3.367-0.855-6.195-2.073-9.072-2.208c-7.322-0.345-11.678,3.049-13.738,10.188c-1.76,6.094-0.818,11.813,3.393,16.596
			c4.186,4.754,10.508,5.754,16.479,3.088c0.998-0.445,1.973-0.949,3.143-1.514c1.221,2.074,2.494,3.977,3.457,6.025
			c0.314,0.668,0.113,2.252-0.35,2.502c-3.045,1.65-6.098,3.865-9.385,4.387c-10.73,1.699-19.664-1.365-25.775-11.492
			c-8.148-13.506-3.963-34.975,15.578-39.996C1248.941,79.816,1258.674,82.287,1262.174,87.251z"/>
		<path fill-rule="evenodd" clip-rule="evenodd" fill="#121212" d="M1142.945,20.665c3.928,0,7.393-0.167,10.824,0.106
			c0.963,0.077,2.172,1.268,2.676,2.25c3.154,6.157,6.143,12.4,9.361,18.972c0.494-0.871,0.906-1.53,1.254-2.221
			c2.766-5.475,5.617-10.91,8.227-16.458c0.963-2.047,2.279-2.754,4.406-2.677c2.758,0.101,5.521,0.024,8.789,0.024
			c-0.438,1.25-0.672,2.279-1.137,3.188c-4.914,9.582-9.891,19.13-14.77,28.728c-0.557,1.093-0.855,2.421-0.895,3.651
			c-0.139,4.232-0.031,8.473-0.164,12.706c-0.107,3.427-0.367,3.581-3.785,3.583c-1.729,0-3.463-0.09-5.186,0.022
			c-1.945,0.125-2.66-0.953-2.75-2.608c-0.221-4.139-0.521-8.283-0.48-12.422c0.025-2.576-0.545-4.832-1.705-7.102
			c-4.631-9.055-9.166-18.159-13.721-27.254C1143.561,22.495,1143.361,21.769,1142.945,20.665z"/>
		<path fill-rule="evenodd" clip-rule="evenodd" fill="#121212" d="M1208.045,92.623c0,10.28,0.002,20.127-0.002,29.975
			c-0.002,2.508-0.088,5.016-0.033,7.521c0.041,1.898-0.865,2.664-2.664,2.643c-1.557-0.02-3.113-0.002-4.67-0.002
			c-4.145,0-4.48-0.334-4.486-4.635c-0.012-10.549-0.008-21.095-0.01-31.643c0-1.188,0-2.377,0-3.869
			c-3.203,0-6.203-0.081-9.197,0.03c-1.818,0.068-3.018-0.274-2.982-2.413c0.043-2.701,0.01-5.402,0.01-8.191
			c12.299,0,24.125,0,36.447,0c0,3.166,0.07,6.277-0.08,9.379c-0.021,0.429-1.119,1.132-1.736,1.151
			C1215.205,92.682,1211.764,92.623,1208.045,92.623z"/>
	</g>
	<g>
		<path fill-rule="evenodd" clip-rule="evenodd" fill="#E50914" d="M965.355,153.902c3.929,0.986,7.301,2.156,10.77,2.645
			c11.889,1.676,23.494,0.83,34.23-5.146c9.963-5.543,18.07-13.082,23.817-23.018c2.533-4.379,3.37-4.674,9.136-2.451
			c-2.44,3.529-4.559,7.133-7.195,10.307c-8.357,10.057-18.703,17.389-31.043,21.852c-9.104,3.293-18.539,4.719-28.129,3.967
			c-14.73-1.154-27.846-6.51-39.295-16.043c-12.2-10.158-20.308-22.898-23.699-38.271c-4.781-21.67-0.699-41.718,12.82-59.586
			c10.855-14.347,25.369-23.131,42.845-26.344c20.306-3.732,38.979,0.751,55.542,13.451c12.674,9.72,20.872,22.337,25.079,37.643
			c3.802,13.828,3.078,27.515-1.453,41.05c-1.271,3.797-4.276,5.104-9.218,3.793c-10.143-2.693-20.248-5.527-30.377-8.279
			c-1.813-0.492-3.645-0.926-5.488-1.281c-3.689-0.711-4.461-0.327-6.116,3.201c-3.45,7.354-6.667,14.822-10.312,22.078
			C982.631,142.703,975.239,149.203,965.355,153.902z M975.468,121.732c0.207-8.982-6.735-15.114-14.71-14.938
			c-8.863,0.196-14.396,5.418-14.438,14.68c-0.039,9.061,6.064,14.697,14.246,14.711
			C967.873,136.197,975.71,130.826,975.468,121.732z M982.327,38.533c-6.425-0.843-14.521,6.082-14.364,14.957
			c0.17,9.599,6.4,14.069,14.326,14.095c9.029,0.029,14.373-7.107,14.626-13.688C997.252,45.174,989.411,37.827,982.327,38.533z
			 M945.662,94.829c8.289,0.021,13.869-5.73,14.314-13.809c0.457-8.294-6.456-15.088-13.867-14.988
			c-8.154,0.109-14.076,6.036-14.572,13.825C931.006,88.2,938.061,95.84,945.662,94.829z M1019.047,94.833
			c7.818,0.615,14.162-6.734,14.199-14.357c0.033-6.883-6.629-14.748-14.066-14.486c-8.291,0.293-14.599,5.929-14.599,14.031
			C1004.581,89.02,1011.006,94.655,1019.047,94.833z M990.525,89.616c0.019-4.824-3.573-8.504-8.287-8.49
			c-4.482,0.012-8.455,3.917-8.443,8.298c0.013,4.54,3.963,8.502,8.492,8.521C986.826,97.962,990.508,94.239,990.525,89.616z"/>
		<path fill-rule="evenodd" clip-rule="evenodd" fill="#E50914" d="M1003.455,115.719c1.77,0.701,3.287,1.205,4.691,1.93
			c0.346,0.178,0.563,1.148,0.422,1.633c-1.258,4.289-3.588,5.432-7.713,3.855c-0.297-0.113-0.774-0.441-0.75-0.605
			c0.266-1.727,0.426-3.512,1.027-5.129C1001.404,116.678,1002.605,116.301,1003.455,115.719z"/>
		<path fill-rule="evenodd" clip-rule="evenodd" fill="#E50914" d="M1002.709,131.236c-1.271,2.49-2.034,4.297-3.098,5.904
			c-0.382,0.578-1.523,1.008-2.252,0.924c-1.399-0.16-2.751-0.736-4.896-1.367c1.425-2.129,2.325-4.617,4.093-5.742
			C997.87,130.121,1000.309,131.055,1002.709,131.236z"/>
		<path fill-rule="evenodd" clip-rule="evenodd" fill="#E50914" d="M993.922,145.596c-0.867,1.334-1.533,2.506-2.338,3.572
			c-1.702,2.252-4.257,2.59-6.506,0.904c-0.317-0.238-0.793-0.783-0.711-0.957c0.745-1.572,1.432-3.225,2.498-4.566
			c0.461-0.58,1.84-0.799,2.683-0.621C991.012,144.238,992.384,144.982,993.922,145.596z"/>
	</g>
</g>
</svg>
