<?xml version="1.0" encoding="utf-8"?>
<!-- Generator: Adobe Illustrator 16.0.0, SVG Export Plug-In . SVG Version: 6.00 Build 0)  -->
<!DOCTYPE svg PUBLIC "-//W3C//DTD SVG 1.1//EN" "http://www.w3.org/Graphics/SVG/1.1/DTD/svg11.dtd">
<svg version="1.1" id="Layer_1" xmlns="http://www.w3.org/2000/svg" xmlns:xlink="http://www.w3.org/1999/xlink" x="0px" y="0px"
	 width="512px" height="512px" viewBox="0 0 512 512" enable-background="new 0 0 512 512" xml:space="preserve">
<g>
	<g>
		<path fill-rule="evenodd" clip-rule="evenodd" fill="#C0C0C0" d="M830.129,308.69c-0.101,1.11-0.238,2.22-0.292,3.335
			c-0.454,9.26-0.871,18.523-1.356,27.782c-0.079,1.509-0.215,3.087-0.75,4.468c-0.287,0.739-1.453,1.555-2.268,1.604
			c-3.158,0.184-6.338,0.021-9.506,0.096c-1.877,0.045-2.536-0.799-2.443-2.579c0.26-5.007,0.391-10.021,0.719-15.024
			c0.307-4.672,0.896-9.324,1.188-13.997c0.53-8.483,0.912-16.977,1.401-25.464c0.126-2.173,0.235-4.383,0.744-6.479
			c0.192-0.795,1.463-1.83,2.293-1.877c3.595-0.205,7.224-0.27,10.809,0.021c1.063,0.086,2.507,1.283,2.95,2.324
			c4.781,11.209,9.395,22.489,14.074,33.743c0.107,0.262,0.436,0.429,0.946,0.908c3.857-9.083,7.63-17.982,11.41-26.882
			c0.844-1.986,1.969-3.898,2.479-5.965c0.868-3.512,2.862-4.84,6.359-4.267c0.958,0.157,1.964,0.024,2.948,0.024
			c7.487,0.004,7.361,0.014,7.862,7.568c0.997,14.988,2.15,29.964,3.232,44.947c0.24,3.364,0.445,6.732,0.681,10.098
			c0.137,2.033-0.623,3.028-2.828,2.91c-2.616-0.135-5.256-0.181-7.866,0.014c-2.457,0.184-3.444-1.126-3.598-3.176
			c-0.726-9.549-1.333-19.109-2.02-28.664c-0.126-1.723-0.427-3.432-0.755-5.982c-2.618,5.701-4.917,10.686-7.193,15.68
			c-1.843,4.033-3.548,8.138-5.572,12.074c-0.509,0.984-1.986,1.996-3.077,2.064c-7.671,0.488-7.646,0.399-10.618-6.818
			c-3.094-7.516-6.256-15.006-9.389-22.504C830.506,308.678,830.317,308.685,830.129,308.69z"/>
		<path fill-rule="evenodd" clip-rule="evenodd" fill="#C0C0C0" d="M867.004,399.31c2.819-13.319,5.525-25.827,8.062-38.371
			c0.462-2.282,1.451-3.167,3.688-3.094c2.728,0.089,5.464,0.042,8.195,0.016c1.945-0.019,2.711,0.478,2.128,2.735
			c-2.903,11.259-5.597,22.568-8.419,33.848c-2.033,8.13-4.223,16.218-6.182,24.36c-0.521,2.17-1.622,3.252-3.73,3.223
			c-11.922-0.168-10.03,1.828-12.675-9.195c-2.449-10.207-5.101-20.368-8.249-30.606c-1.639,6.575-3.291,13.146-4.905,19.724
			c-1.338,5.439-2.68,10.877-3.921,16.336c-0.6,2.639-2.02,3.918-4.79,3.787c-2.401-0.117-4.815-0.143-7.21,0.012
			c-2.189,0.141-3.172-0.938-3.647-2.854c-4.749-19.117-9.516-38.233-14.236-57.36c-0.28-1.133-0.198-2.354-0.317-3.982
			c3.998,0,7.811-0.244,11.554,0.153c1.062,0.112,2.505,1.954,2.794,3.227c2.785,12.272,5.358,24.593,8.002,36.898
			c0.043,0.197,0.192,0.371,0.254,0.486c3.201-11.534,6.359-23.14,9.658-34.706c1.717-6.026,4.687-7.678,10.662-5.93
			c0.961,0.281,1.961,1.68,2.274,2.755c3.376,11.67,6.619,23.38,9.909,35.075C866.156,396.753,866.472,397.644,867.004,399.31z"/>
		<path fill-rule="evenodd" clip-rule="evenodd" fill="#C0C0C0" d="M851.476,463.966c11.478,6.811,13.318,20.145,4.102,28.41
			c-4.481,4.021-10.177,5.363-15.917,5.668c-7.514,0.393-15.064,0.045-22.598,0.127c-2.072,0.023-2.923-0.609-2.916-2.797
			c0.058-19.545,0.057-39.09,0-58.637c-0.006-2.174,0.818-2.83,2.903-2.811c7.969,0.082,15.946-0.176,23.91,0.096
			c6.524,0.223,12.47,2.443,16.151,8.178C861.264,448.667,860.704,457.749,851.476,463.966z M828.704,485.774
			c3.606,0,6.876,0.176,10.12-0.041c4.46-0.297,7.121-2.787,7.495-6.592c0.383-3.85-1.857-7.643-5.761-8.217
			c-3.876-0.572-7.903-0.125-11.854-0.125C828.704,475.81,828.704,480.575,828.704,485.774z M828.572,460.204
			c2.671,0,5.048,0.002,7.426,0c0.655-0.004,1.321,0.053,1.962-0.039c3.258-0.471,6.111-3.176,6.395-6.002
			c0.37-3.695-1.063-6.797-4.263-7.488c-3.72-0.801-7.604-0.834-11.52-1.209C828.572,450.737,828.572,455.206,828.572,460.204z"/>
		<path fill-rule="evenodd" clip-rule="evenodd" fill="#C0C0C0" d="M1059.772,357.867c0,8.215,0,16.042,0,24.068
			c7.174,0,13.896,0,21.146,0c0-7.92,0-15.829,0-24.061c4.534,0,8.555-0.135,12.554,0.121c0.732,0.047,1.875,1.631,1.954,2.578
			c0.262,3.15,0.141,6.332,0.141,9.502c-0.006,15.744-0.016,31.485-0.033,47.226c-0.004,4.631-0.13,4.742-4.871,4.748
			c-1.749,0-3.501,0.002-5.248,0c-4.265-0.008-4.643-0.303-4.679-4.656c-0.052-6.553,0.022-13.105,0.04-19.66
			c0.002-0.535,0-1.068,0-1.764c-6.995,0-13.842,0-20.91,0c0,7.291-0.094,14.57,0.042,21.844c0.06,3.051-0.937,4.482-4.142,4.27
			c-2.612-0.172-5.246-0.033-7.869-0.039c-1.983-0.002-2.861-0.83-2.854-2.975c0.063-19.463,0.057-38.92,0.007-58.38
			c-0.005-2.119,0.753-2.926,2.891-2.856C1051.639,357.953,1055.346,357.867,1059.772,357.867z"/>
		<path fill-rule="evenodd" clip-rule="evenodd" fill="#C0C0C0" d="M894.093,433.958c8.106,0.1,7.806-1.307,10.79,7.791
			c5.807,17.707,11.639,35.406,17.608,53.057c0.865,2.564-0.158,3.213-2.208,3.299c-2.837,0.117-5.687,0.131-8.52-0.004
			c-2.365-0.117-3.815-1.252-4.498-3.803c-2.331-8.701-2.43-8.67-11.357-8.684c-3.278-0.004-6.56,0.059-9.83-0.078
			c-1.606-0.068-2.326,0.363-2.642,2.025c-0.42,2.209-1.295,4.332-1.814,6.529c-0.67,2.84-2.313,4.189-5.266,4.068
			c-2.401-0.098-4.808,0.01-7.21-0.031c-3.376-0.057-4.068-0.975-3.025-4.104c5.684-17.049,11.39-34.09,17.09-51.133
			c0.171-0.51,0.36-1.016,0.538-1.521C886.648,433.065,885.417,433.991,894.093,433.958z M886.979,473.149c4.899,0,9.536,0,14.387,0
			c-2.304-7.346-4.542-14.479-6.988-22.281C891.792,458.659,889.401,465.854,886.979,473.149z"/>
		<path fill-rule="evenodd" clip-rule="evenodd" fill="#C0C0C0" d="M904.185,409.587c-0.784,2.891-1.595,5.563-2.224,8.275
			c-0.662,2.859-2.362,4.227-5.275,4.191c-2.402-0.029-4.812,0.066-7.21-0.025c-3.108-0.123-3.745-0.982-2.813-3.82
			c6.263-19.045,12.565-38.079,18.821-57.126c0.753-2.287,2.19-3.306,4.592-3.234c2.839,0.082,5.685,0.124,8.52-0.012
			c2.844-0.139,4.367,1.078,5.253,3.775c5.553,16.88,11.209,33.729,16.83,50.587c0.716,2.148,1.283,4.363,2.176,6.439
			c0.96,2.232-0.096,3.213-1.997,3.338c-3.047,0.195-6.153,0.313-9.158-0.094c-1.24-0.168-2.407-1.676-3.374-2.779
			c-0.609-0.693-0.847-1.746-1.145-2.668c-2.226-6.846-2.218-6.848-9.482-6.848C913.33,409.587,908.964,409.587,904.185,409.587z
			 M921.931,397.567c-2.345-7.416-4.619-14.593-6.892-21.772c-0.209-0.004-0.419-0.008-0.626-0.011
			c-2.284,7.183-4.569,14.365-6.928,21.783C912.622,397.567,917.072,397.567,921.931,397.567z"/>
		<path fill-rule="evenodd" clip-rule="evenodd" fill="#C0C0C0" d="M996.569,447.308c0,3.826,0,7.5,0,11.578
			c5.987,0,11.852,0.135,17.702-0.057c2.825-0.094,3.831,0.834,3.858,3.666c0.086,9.461,0.162,9.461-9.389,9.463
			c-3.928,0-7.853,0-12.308,0c0,2.1,0,4.119,0,6.141c0,1.959,0,3.914,0,6.424c4.351,0,8.559,0.002,12.764-0.004
			c2.947-0.002,5.898-0.004,8.847-0.031c1.871-0.016,2.785,0.783,2.728,2.75c-0.081,2.727-0.081,5.459-0.002,8.188
			c0.054,1.99-0.893,2.721-2.764,2.719c-11.357-0.016-22.718-0.021-34.074,0.008c-2.519,0.008-2.354-1.783-2.363-3.383
			c-0.052-6.66-0.042-13.32-0.052-19.98c-0.016-12.121-0.021-24.242-0.039-36.363c-0.005-4.434,0.015-4.467,4.252-4.467
			c10.487-0.002,20.973,0.078,31.456-0.053c2.676-0.035,3.604,0.766,3.646,3.492c0.148,9.576,0.236,9.572-9.296,9.582
			c-4.693,0.002-9.391,0.023-14.085,0.051C997.25,447.03,997.05,447.151,996.569,447.308z"/>
		<path fill-rule="evenodd" clip-rule="evenodd" fill="#C0C0C0" d="M931.85,482.052c6.409,1.332,12.131,2.699,17.92,3.619
			c1.66,0.264,3.65-0.486,5.269-1.24c4.367-2.037,4.843-6.775,0.682-9.129c-4.282-2.42-8.978-4.123-13.53-6.045
			c-7.357-3.105-12.606-7.846-13.361-16.363c-0.91-10.293,5.523-17.664,14.772-19.447c8.145-1.574,16.173-0.125,23.797,3.307
			c2.154,0.971,2.678,2.266,1.686,4.381c-1.091,2.334-1.453,5.742-3.242,6.787c-1.552,0.91-4.628-0.963-7.072-1.344
			c-2.884-0.449-5.81-0.842-8.715-0.848c-3.005-0.002-6.097,2.508-6.469,5.053c-0.474,3.234,1.63,5.076,4.204,6.238
			c3.241,1.463,6.653,2.543,9.942,3.904c6.496,2.678,12.274,6.299,14.336,13.537c2.864,10.045-2.989,19.98-13.313,23.01
			c-9.199,2.697-18,1.285-26.421-2.902c-4.171-2.074-4.481-3.207-2.729-7.654C930.346,485.026,931.304,483.224,931.85,482.052z"/>
		<path fill-rule="evenodd" clip-rule="evenodd" fill="#C0C0C0" d="M1036.656,364.568c-1.747,2.99-3.518,6.031-4.998,8.568
			c-4.254-1.08-7.825-2.619-11.458-2.788c-9.248-0.436-14.75,3.851-17.354,12.868c-2.222,7.697-1.032,14.921,4.286,20.962
			c5.285,6.004,13.271,7.268,20.813,3.9c1.26-0.563,2.491-1.199,3.969-1.912c1.542,2.619,3.149,5.021,4.367,7.609
			c0.396,0.846,0.144,2.846-0.441,3.16c-3.847,2.086-7.702,4.883-11.854,5.541c-13.553,2.146-24.837-1.725-32.556-14.516
			c-10.291-17.058-5.006-44.175,19.676-50.515C1019.943,355.176,1032.235,358.297,1036.656,364.568z"/>
		<path fill-rule="evenodd" clip-rule="evenodd" fill="#C0C0C0" d="M886.066,280.467c4.96,0,9.337-0.212,13.671,0.133
			c1.217,0.098,2.743,1.602,3.38,2.843c3.983,7.776,7.759,15.662,11.824,23.962c0.624-1.1,1.145-1.934,1.584-2.805
			c3.492-6.915,7.094-13.78,10.39-20.787c1.217-2.586,2.879-3.479,5.565-3.381c3.483,0.127,6.974,0.031,11.101,0.031
			c-0.552,1.578-0.849,2.878-1.435,4.025c-6.207,12.104-12.493,24.162-18.654,36.283c-0.704,1.381-1.082,3.058-1.131,4.612
			c-0.176,5.346-0.039,10.701-0.207,16.048c-0.136,4.328-0.463,4.523-4.78,4.525c-2.184,0-4.375-0.113-6.55,0.029
			c-2.458,0.157-3.36-1.205-3.474-3.295c-0.278-5.227-0.658-10.462-0.607-15.689c0.032-3.254-0.688-6.104-2.152-8.969
			c-5.85-11.438-11.578-22.936-17.33-34.424C886.844,282.777,886.591,281.861,886.066,280.467z"/>
		<path fill-rule="evenodd" clip-rule="evenodd" fill="#C0C0C0" d="M968.289,371.352c0,12.984,0.003,25.423-0.002,37.86
			c-0.002,3.166-0.111,6.334-0.043,9.5c0.052,2.396-1.092,3.365-3.364,3.338c-1.967-0.025-3.932-0.004-5.898-0.004
			c-5.234,0-5.658-0.422-5.666-5.854c-0.016-13.322-0.01-26.646-0.012-39.966c0-1.502,0-3.004,0-4.888
			c-4.046,0-7.835-0.103-11.618,0.038c-2.295,0.087-3.811-0.346-3.766-3.048c0.054-3.411,0.012-6.823,0.012-10.346
			c15.534,0,30.471,0,46.035,0c0,3.999,0.088,7.929-0.102,11.846c-0.027,0.542-1.414,1.43-2.192,1.454
			C977.332,371.426,972.987,371.352,968.289,371.352z"/>
	</g>
	<g>
		<path fill-rule="evenodd" clip-rule="evenodd" fill="#E50914" d="M661.766,448.751c4.961,1.244,9.22,2.723,13.602,3.34
			c15.016,2.115,29.673,1.049,43.234-6.5c12.582-7.002,22.823-16.523,30.082-29.072c3.199-5.531,4.256-5.904,11.537-3.096
			c-3.081,4.457-5.757,9.008-9.088,13.016c-10.555,12.703-23.621,21.965-39.207,27.602c-11.498,4.158-23.416,5.959-35.527,5.01
			c-18.605-1.459-35.17-8.223-49.631-20.264c-15.41-12.83-25.649-28.922-29.934-48.339c-6.039-27.369-0.883-52.689,16.193-75.258
			c13.71-18.121,32.041-29.215,54.113-33.273c25.648-4.713,49.232,0.949,70.151,16.99c16.007,12.275,26.362,28.212,31.677,47.543
			c4.801,17.465,3.887,34.752-1.836,51.849c-1.605,4.795-5.4,6.445-11.643,4.791c-12.811-3.402-25.574-6.982-38.366-10.458
			c-2.289-0.621-4.603-1.169-6.932-1.618c-4.661-0.897-5.634-0.412-7.726,4.043c-4.358,9.289-8.422,18.721-13.023,27.887
			C683.584,434.604,674.249,442.815,661.766,448.751z M674.538,408.118c0.261-11.344-8.508-19.089-18.579-18.867
			c-11.194,0.247-18.184,6.844-18.234,18.541c-0.05,11.445,7.658,18.564,17.992,18.582
			C664.946,426.388,674.843,419.604,674.538,408.118z M683.201,303.034c-8.114-1.064-18.339,7.683-18.142,18.892
			c0.214,12.123,8.084,17.77,18.094,17.801c11.404,0.038,18.152-8.977,18.473-17.287
			C702.051,311.422,692.149,302.143,683.201,303.034z M636.892,374.138c10.47,0.026,17.517-7.238,18.079-17.44
			c0.576-10.476-8.154-19.057-17.515-18.932c-10.299,0.139-17.778,7.625-18.405,17.462
			C618.379,365.766,627.292,375.416,636.892,374.138z M729.58,374.143c9.874,0.777,17.886-8.506,17.934-18.134
			c0.042-8.693-8.372-18.628-17.767-18.297c-10.472,0.37-18.438,7.488-18.438,17.722
			C711.309,366.801,719.422,373.918,729.58,374.143z M693.557,367.554c0.021-6.093-4.515-10.741-10.469-10.724
			c-5.66,0.016-10.678,4.947-10.664,10.48c0.016,5.734,5.004,10.738,10.727,10.762C688.883,378.096,693.534,373.393,693.557,367.554
			z"/>
		<path fill-rule="evenodd" clip-rule="evenodd" fill="#E50914" d="M709.887,400.522c2.234,0.887,4.151,1.521,5.926,2.438
			c0.435,0.225,0.709,1.451,0.531,2.063c-1.589,5.416-4.533,6.859-9.74,4.871c-0.376-0.145-0.979-0.559-0.947-0.766
			c0.334-2.18,0.535-4.436,1.297-6.479C707.295,401.733,708.813,401.259,709.887,400.522z"/>
		<path fill-rule="evenodd" clip-rule="evenodd" fill="#E50914" d="M708.944,420.122c-1.604,3.146-2.569,5.428-3.912,7.457
			c-0.482,0.73-1.926,1.273-2.846,1.168c-1.767-0.203-3.474-0.93-6.182-1.729c1.799-2.688,2.937-5.83,5.17-7.25
			C702.832,418.714,705.912,419.892,708.944,420.122z"/>
		<path fill-rule="evenodd" clip-rule="evenodd" fill="#E50914" d="M697.844,438.259c-1.094,1.686-1.935,3.164-2.952,4.512
			c-2.149,2.844-5.376,3.271-8.216,1.143c-0.402-0.301-1.003-0.99-0.899-1.209c0.942-1.986,1.81-4.072,3.155-5.768
			c0.582-0.732,2.324-1.008,3.389-0.785C694.169,436.544,695.903,437.483,697.844,438.259z"/>
	</g>
</g>
<g>
	<g>
		<path fill-rule="evenodd" clip-rule="evenodd" fill="#121212" d="M239.504,176.222c-0.101,1.101-0.237,2.199-0.291,3.304
			c-0.45,9.173-0.862,18.349-1.344,27.52c-0.078,1.496-0.213,3.058-0.743,4.425c-0.283,0.733-1.439,1.541-2.246,1.588
			c-3.129,0.183-6.277,0.021-9.415,0.095c-1.859,0.045-2.513-0.792-2.421-2.555c0.256-4.959,0.387-9.927,0.711-14.883
			c0.304-4.628,0.89-9.236,1.178-13.864c0.525-8.404,0.902-16.817,1.388-25.224c0.124-2.153,0.232-4.341,0.737-6.418
			c0.192-0.787,1.449-1.812,2.271-1.858c3.562-0.204,7.156-0.267,10.707,0.021c1.053,0.085,2.483,1.272,2.922,2.302
			c4.737,11.104,9.306,22.278,13.942,33.426c0.107,0.259,0.433,0.425,0.938,0.899c3.819-8.997,7.558-17.812,11.302-26.627
			c0.835-1.967,1.949-3.862,2.455-5.908c0.86-3.479,2.835-4.794,6.3-4.227c0.948,0.155,1.945,0.023,2.92,0.023
			c7.416,0.005,7.292,0.015,7.788,7.497c0.986,14.847,2.131,29.682,3.2,44.522c0.24,3.333,0.442,6.67,0.675,10.003
			c0.137,2.013-0.615,3-2.8,2.883c-2.593-0.134-5.208-0.18-7.793,0.012c-2.434,0.182-3.411-1.114-3.563-3.145
			c-0.719-9.459-1.322-18.929-2.001-28.393c-0.125-1.707-0.423-3.4-0.748-5.927c-2.593,5.647-4.87,10.586-7.126,15.531
			c-1.825,3.996-3.514,8.062-5.52,11.961c-0.504,0.975-1.967,1.977-3.047,2.045c-7.6,0.483-7.575,0.395-10.519-6.754
			c-3.065-7.446-6.198-14.864-9.301-22.293C239.875,176.21,239.689,176.216,239.504,176.222z"/>
		<path fill-rule="evenodd" clip-rule="evenodd" fill="#121212" d="M276.031,265.985c2.793-13.193,5.474-25.583,7.985-38.008
			c0.457-2.26,1.437-3.138,3.653-3.064c2.702,0.088,5.412,0.041,8.117,0.015c1.928-0.018,2.686,0.474,2.108,2.71
			c-2.876,11.152-5.544,22.356-8.34,33.529c-2.013,8.052-4.183,16.064-6.123,24.131c-0.516,2.147-1.605,3.221-3.694,3.191
			c-11.811-0.167-9.936,1.811-12.556-9.11c-2.426-10.108-5.053-20.174-8.171-30.315c-1.623,6.513-3.26,13.023-4.86,19.537
			c-1.324,5.389-2.653,10.773-3.883,16.182c-0.594,2.612-2,3.88-4.745,3.751c-2.378-0.115-4.77-0.143-7.143,0.012
			c-2.167,0.14-3.14-0.929-3.612-2.827c-4.705-18.938-9.427-37.873-14.102-56.817c-0.279-1.123-0.198-2.333-0.315-3.946
			c3.961,0,7.736-0.241,11.444,0.152c1.052,0.111,2.481,1.936,2.768,3.196c2.759,12.156,5.309,24.36,7.927,36.55
			c0.043,0.195,0.19,0.369,0.251,0.481c3.172-11.426,6.3-22.921,9.566-34.377c1.701-5.97,4.644-7.605,10.562-5.875
			c0.953,0.279,1.942,1.664,2.253,2.729c3.345,11.56,6.559,23.159,9.815,34.744C275.19,263.453,275.502,264.336,276.031,265.985z"/>
		<path fill-rule="evenodd" clip-rule="evenodd" fill="#121212" d="M260.648,330.031c11.37,6.746,13.193,19.954,4.064,28.142
			c-4.44,3.983-10.083,5.313-15.769,5.613c-7.443,0.391-14.922,0.047-22.383,0.127c-2.054,0.022-2.896-0.604-2.889-2.771
			c0.057-19.36,0.057-38.721,0-58.081c-0.006-2.155,0.811-2.806,2.876-2.786c7.894,0.081,15.796-0.173,23.685,0.096
			c6.463,0.22,12.352,2.419,16,8.101C270.344,314.876,269.79,323.873,260.648,330.031z M238.092,351.635
			c3.571,0,6.81,0.173,10.024-0.042c4.418-0.293,7.054-2.762,7.426-6.529c0.379-3.814-1.843-7.57-5.708-8.14
			c-3.841-0.566-7.83-0.124-11.742-0.124C238.092,341.763,238.092,346.483,238.092,351.635z M237.96,326.305
			c2.646,0,5,0.002,7.356,0c0.649-0.003,1.309,0.054,1.944-0.039c3.226-0.467,6.053-3.146,6.334-5.945
			c0.366-3.661-1.054-6.732-4.223-7.416c-3.686-0.795-7.534-0.826-11.412-1.197C237.96,316.929,237.96,321.354,237.96,326.305z"/>
		<path fill-rule="evenodd" clip-rule="evenodd" fill="#121212" d="M466.977,224.935c0,8.137,0,15.891,0,23.842
			c7.106,0,13.765,0,20.946,0c0-7.846,0-15.68,0-23.834c4.491,0,8.475-0.133,12.436,0.12c0.726,0.047,1.857,1.615,1.936,2.554
			c0.259,3.121,0.139,6.272,0.139,9.413c-0.005,15.595-0.015,31.188-0.031,46.781c-0.005,4.587-0.13,4.696-4.826,4.701
			c-1.732,0-3.468,0.003-5.197,0c-4.226-0.007-4.599-0.298-4.636-4.61c-0.052-6.49,0.022-12.983,0.039-19.476
			c0.003-0.53,0-1.059,0-1.747c-6.928,0-13.711,0-20.712,0c0,7.223-0.093,14.432,0.042,21.638c0.059,3.022-0.929,4.439-4.103,4.229
			c-2.588-0.171-5.197-0.034-7.795-0.039c-1.965-0.002-2.835-0.821-2.827-2.947c0.063-19.276,0.056-38.552,0.007-57.828
			c-0.005-2.099,0.745-2.898,2.861-2.83C458.921,225.02,462.593,224.935,466.977,224.935z"/>
		<path fill-rule="evenodd" clip-rule="evenodd" fill="#121212" d="M302.863,300.308c8.03,0.098,7.731-1.295,10.688,7.717
			c5.752,17.54,11.528,35.072,17.442,52.556c0.857,2.539-0.156,3.182-2.188,3.268c-2.81,0.117-5.632,0.129-8.439-0.005
			c-2.341-0.115-3.778-1.239-4.455-3.766c-2.309-8.619-2.406-8.59-11.25-8.602c-3.247-0.005-6.497,0.059-9.737-0.078
			c-1.591-0.068-2.305,0.359-2.617,2.006c-0.415,2.189-1.283,4.291-1.796,6.468c-0.665,2.813-2.292,4.149-5.217,4.03
			c-2.378-0.096-4.763,0.01-7.143-0.029c-3.343-0.057-4.029-0.968-2.996-4.066c5.63-16.888,11.282-33.768,16.929-50.65
			c0.169-0.506,0.357-1.004,0.533-1.508C295.489,299.423,294.269,300.339,302.863,300.308z M295.816,339.128
			c4.853,0,9.447,0,14.251,0c-2.282-7.276-4.499-14.341-6.923-22.07C300.583,324.774,298.215,331.902,295.816,339.128z"/>
		<path fill-rule="evenodd" clip-rule="evenodd" fill="#121212" d="M312.86,276.165c-0.777,2.864-1.578,5.51-2.202,8.198
			c-0.657,2.832-2.341,4.186-5.227,4.151c-2.38-0.029-4.765,0.066-7.143-0.024c-3.078-0.122-3.709-0.975-2.785-3.785
			c6.204-18.864,12.447-37.719,18.645-56.586c0.745-2.265,2.17-3.274,4.547-3.204c2.813,0.081,5.633,0.124,8.44-0.012
			c2.817-0.137,4.325,1.069,5.202,3.74c5.5,16.722,11.104,33.411,16.673,50.11c0.708,2.128,1.271,4.322,2.154,6.378
			c0.951,2.211-0.095,3.184-1.979,3.306c-3.019,0.193-6.095,0.311-9.071-0.093c-1.229-0.166-2.385-1.659-3.342-2.751
			c-0.604-0.688-0.839-1.73-1.135-2.645c-2.203-6.781-2.196-6.783-9.393-6.783C321.918,276.165,317.593,276.165,312.86,276.165z
			 M330.439,264.26c-2.324-7.345-4.577-14.456-6.827-21.566c-0.208-0.004-0.416-0.007-0.621-0.011
			c-2.263,7.115-4.525,14.23-6.861,21.578C321.216,264.26,325.625,264.26,330.439,264.26z"/>
		<path fill-rule="evenodd" clip-rule="evenodd" fill="#121212" d="M404.371,313.529c0,3.79,0,7.431,0,11.471
			c5.931,0,11.739,0.132,17.535-0.057c2.798-0.093,3.795,0.826,3.822,3.631c0.085,9.371,0.161,9.371-9.301,9.374
			c-3.89,0-7.777,0-12.19,0c0,2.079,0,4.08,0,6.082c0,1.939,0,3.878,0,6.362c4.311,0,8.477,0.003,12.643-0.002
			c2.92-0.003,5.843-0.005,8.763-0.032c1.854-0.017,2.759,0.775,2.703,2.725c-0.081,2.7-0.081,5.408-0.003,8.11
			c0.054,1.97-0.885,2.695-2.736,2.693c-11.251-0.015-22.503-0.022-33.753,0.007c-2.495,0.008-2.331-1.767-2.341-3.35
			c-0.052-6.598-0.042-13.195-0.052-19.793c-0.015-12.008-0.022-24.013-0.039-36.021c-0.005-4.392,0.015-4.423,4.213-4.423
			c10.388-0.003,20.774,0.075,31.157-0.054c2.651-0.034,3.57,0.757,3.612,3.46c0.146,9.485,0.234,9.48-9.208,9.49
			c-4.649,0.003-9.303,0.024-13.952,0.052C405.045,313.256,404.847,313.376,404.371,313.529z"/>
		<path fill-rule="evenodd" clip-rule="evenodd" fill="#121212" d="M340.264,347.944c6.349,1.322,12.015,2.676,17.75,3.587
			c1.645,0.262,3.616-0.481,5.22-1.229c4.325-2.019,4.797-6.713,0.674-9.044c-4.241-2.396-8.892-4.083-13.402-5.986
			c-7.287-3.076-12.486-7.771-13.234-16.211c-0.901-10.194,5.471-17.496,14.632-19.263c8.068-1.559,16.021-0.122,23.573,3.277
			c2.133,0.96,2.651,2.243,1.669,4.34c-1.08,2.312-1.439,5.686-3.211,6.722c-1.537,0.902-4.584-0.955-7.006-1.331
			c-2.856-0.445-5.755-0.834-8.633-0.839c-2.977-0.002-6.038,2.483-6.407,5.005c-0.469,3.203,1.615,5.028,4.164,6.18
			c3.211,1.449,6.59,2.52,9.85,3.865c6.435,2.654,12.157,6.241,14.2,13.41c2.837,9.95-2.962,19.791-13.188,22.791
			c-9.112,2.674-17.83,1.276-26.17-2.873c-4.133-2.055-4.44-3.177-2.705-7.582C338.774,350.894,339.722,349.107,340.264,347.944z"/>
		<path fill-rule="evenodd" clip-rule="evenodd" fill="#121212" d="M444.079,231.571c-1.729,2.964-3.484,5.976-4.95,8.489
			c-4.213-1.07-7.751-2.594-11.351-2.762c-9.161-0.431-14.61,3.814-17.188,12.747c-2.202,7.625-1.024,14.78,4.244,20.764
			c5.236,5.948,13.146,7.199,20.616,3.863c1.249-0.557,2.468-1.188,3.932-1.894c1.527,2.595,3.12,4.975,4.325,7.538
			c0.394,0.836,0.142,2.817-0.438,3.131c-3.81,2.064-7.629,4.835-11.741,5.487c-13.425,2.126-24.602-1.707-32.248-14.377
			c-10.194-16.897-4.958-43.758,19.49-50.04C427.524,222.269,439.7,225.36,444.079,231.571z"/>
		<path fill-rule="evenodd" clip-rule="evenodd" fill="#121212" d="M294.912,148.265c4.914,0,9.249-0.209,13.542,0.133
			c1.205,0.097,2.718,1.586,3.349,2.815c3.946,7.704,7.685,15.514,11.712,23.736c0.618-1.09,1.134-1.915,1.568-2.778
			c3.46-6.85,7.027-13.65,10.292-20.591c1.205-2.561,2.852-3.445,5.513-3.349c3.45,0.126,6.908,0.031,10.996,0.031
			c-0.547,1.564-0.841,2.852-1.422,3.988c-6.148,11.988-12.374,23.934-18.479,35.941c-0.696,1.367-1.07,3.029-1.119,4.568
			c-0.173,5.295-0.039,10.6-0.205,15.896c-0.135,4.287-0.459,4.48-4.735,4.483c-2.163,0-4.333-0.112-6.488,0.028
			c-2.434,0.157-3.328-1.192-3.44-3.263c-0.275-5.178-0.652-10.363-0.601-15.541c0.031-3.223-0.682-6.045-2.134-8.885
			c-5.793-11.328-11.468-22.719-17.166-34.097C295.681,150.554,295.432,149.646,294.912,148.265z"/>
		<path fill-rule="evenodd" clip-rule="evenodd" fill="#121212" d="M376.358,238.291c0,12.862,0.003,25.182-0.002,37.503
			c-0.003,3.137-0.11,6.274-0.042,9.41c0.052,2.375-1.082,3.333-3.333,3.306c-1.947-0.024-3.895-0.002-5.843-0.002
			c-5.185,0-5.605-0.418-5.612-5.799c-0.015-13.198-0.01-26.393-0.013-39.589c0-1.487,0-2.974,0-4.841
			c-4.007,0-7.761-0.101-11.507,0.038c-2.274,0.085-3.774-0.343-3.73-3.019c0.054-3.379,0.012-6.759,0.012-10.249
			c15.387,0,30.183,0,45.6,0c0,3.961,0.088,7.854-0.101,11.734c-0.026,0.537-1.4,1.417-2.172,1.441
			C385.316,238.366,381.01,238.291,376.358,238.291z"/>
	</g>
	<g>
		<path fill-rule="evenodd" clip-rule="evenodd" fill="#E50914" d="M72.729,314.959c4.915,1.234,9.134,2.697,13.474,3.309
			c14.874,2.097,29.394,1.038,42.826-6.438c12.464-6.936,22.607-16.367,29.798-28.798c3.169-5.479,4.216-5.848,11.43-3.066
			c-3.053,4.415-5.703,8.924-9.002,12.895c-10.456,12.582-23.4,21.755-38.838,27.339c-11.39,4.119-23.194,5.903-35.192,4.963
			c-18.429-1.444-34.838-8.145-49.162-20.071c-15.264-12.709-25.407-28.648-29.65-47.882c-5.982-27.111-0.875-52.193,16.04-74.548
			c13.581-17.949,31.739-28.939,53.603-32.959c25.404-4.669,48.766,0.939,69.489,16.829c15.856,12.161,26.113,27.946,31.376,47.095
			c4.756,17.3,3.851,34.424-1.818,51.359c-1.59,4.75-5.351,6.385-11.533,4.745c-12.689-3.369-25.332-6.915-38.004-10.357
			c-2.268-0.616-4.56-1.158-6.866-1.604c-4.616-0.891-5.582-0.409-7.652,4.005c-4.316,9.2-8.341,18.544-12.901,27.622
			C94.342,300.947,85.095,309.08,72.729,314.959z M85.38,274.711c0.259-11.238-8.426-18.909-18.403-18.689
			c-11.089,0.246-18.012,6.779-18.063,18.367c-0.049,11.336,7.587,18.388,17.823,18.405
			C75.879,292.808,85.684,286.088,85.38,274.711z M93.962,170.619c-8.038-1.054-18.167,7.609-17.971,18.713
			c0.212,12.009,8.007,17.602,17.923,17.634c11.297,0.037,17.982-8.892,18.299-17.125
			C112.635,178.929,102.825,169.736,93.962,170.619z M48.091,241.051c10.37,0.027,17.352-7.169,17.909-17.276
			c0.572-10.377-8.077-18.877-17.349-18.752c-10.202,0.137-17.611,7.552-18.231,17.297C29.754,232.758,38.58,242.317,48.091,241.051
			z M139.902,241.056c9.782,0.77,17.718-8.425,17.765-17.963c0.042-8.611-8.293-18.451-17.599-18.124
			c-10.373,0.366-18.264,7.417-18.264,17.554C121.804,233.784,129.842,240.833,139.902,241.056z M104.219,234.529
			c0.023-6.036-4.471-10.639-10.368-10.622c-5.608,0.015-10.578,4.9-10.563,10.381c0.016,5.68,4.958,10.637,10.625,10.66
			C99.591,244.972,104.197,240.313,104.219,234.529z"/>
		<path fill-rule="evenodd" clip-rule="evenodd" fill="#E50914" d="M120.396,267.188c2.214,0.877,4.112,1.508,5.87,2.414
			c0.432,0.223,0.704,1.437,0.527,2.043c-1.573,5.366-4.489,6.796-9.649,4.823c-0.372-0.142-0.969-0.552-0.938-0.757
			c0.333-2.16,0.533-4.394,1.286-6.417C117.83,268.388,119.333,267.916,120.396,267.188z"/>
		<path fill-rule="evenodd" clip-rule="evenodd" fill="#E50914" d="M119.462,286.602c-1.589,3.115-2.545,5.376-3.875,7.387
			c-0.478,0.724-1.906,1.261-2.817,1.156c-1.75-0.201-3.441-0.922-6.125-1.711c1.782-2.663,2.909-5.776,5.12-7.184
			C113.408,285.206,116.459,286.374,119.462,286.602z"/>
		<path fill-rule="evenodd" clip-rule="evenodd" fill="#E50914" d="M108.468,304.566c-1.085,1.669-1.918,3.135-2.925,4.47
			c-2.129,2.817-5.326,3.24-8.14,1.131c-0.397-0.298-0.992-0.979-0.889-1.197c0.932-1.967,1.791-4.034,3.125-5.713
			c0.577-0.726,2.302-1,3.356-0.777C104.828,302.868,106.544,303.799,108.468,304.566z"/>
	</g>
</g>
</svg>
