<?xml version="1.0" encoding="utf-8"?>
<!-- Generator: Adobe Illustrator 16.0.0, SVG Export Plug-In . SVG Version: 6.00 Build 0)  -->
<!DOCTYPE svg PUBLIC "-//W3C//DTD SVG 1.1//EN" "http://www.w3.org/Graphics/SVG/1.1/DTD/svg11.dtd">
<svg version="1.1" id="Layer_1" xmlns="http://www.w3.org/2000/svg" xmlns:xlink="http://www.w3.org/1999/xlink" x="0px" y="0px"
	 width="512px" height="512px" viewBox="0 0 512 512" enable-background="new 0 0 512 512" xml:space="preserve">
<g>
	<g>
		<path fill-rule="evenodd" clip-rule="evenodd" fill="#C0C0C0" d="M241.129,178.645c-0.101,1.11-0.238,2.22-0.292,3.335
			c-0.454,9.26-0.871,18.523-1.356,27.782c-0.079,1.509-0.215,3.087-0.75,4.468c-0.287,0.739-1.453,1.555-2.268,1.604
			c-3.158,0.184-6.338,0.021-9.506,0.096c-1.877,0.045-2.536-0.799-2.443-2.579c0.26-5.007,0.391-10.021,0.719-15.024
			c0.307-4.672,0.896-9.324,1.188-13.997c0.53-8.483,0.912-16.977,1.401-25.464c0.126-2.173,0.235-4.383,0.744-6.479
			c0.192-0.795,1.463-1.83,2.293-1.877c3.595-0.205,7.224-0.27,10.809,0.021c1.063,0.086,2.507,1.283,2.95,2.324
			c4.781,11.209,9.395,22.489,14.074,33.743c0.107,0.262,0.436,0.429,0.946,0.908c3.857-9.083,7.63-17.982,11.41-26.882
			c0.844-1.986,1.969-3.898,2.479-5.965c0.868-3.512,2.862-4.84,6.359-4.267c0.958,0.157,1.964,0.024,2.948,0.024
			c7.487,0.004,7.361,0.014,7.862,7.568c0.997,14.988,2.15,29.964,3.232,44.947c0.24,3.364,0.445,6.732,0.681,10.098
			c0.137,2.033-0.623,3.028-2.828,2.91c-2.616-0.135-5.256-0.181-7.866,0.014c-2.457,0.184-3.444-1.126-3.598-3.176
			c-0.726-9.549-1.333-19.109-2.02-28.664c-0.126-1.723-0.427-3.432-0.755-5.982c-2.618,5.701-4.917,10.686-7.193,15.68
			c-1.843,4.033-3.548,8.138-5.572,12.074c-0.509,0.984-1.986,1.996-3.077,2.064c-7.671,0.488-7.646,0.399-10.618-6.818
			c-3.094-7.516-6.256-15.006-9.389-22.504C241.506,178.632,241.317,178.639,241.129,178.645z"/>
		<path fill-rule="evenodd" clip-rule="evenodd" fill="#C0C0C0" d="M278.004,269.264c2.819-13.319,5.525-25.827,8.062-38.371
			c0.462-2.282,1.451-3.167,3.688-3.094c2.728,0.089,5.464,0.042,8.195,0.016c1.945-0.019,2.711,0.478,2.128,2.735
			c-2.903,11.259-5.597,22.568-8.419,33.848c-2.033,8.13-4.223,16.218-6.182,24.36c-0.521,2.17-1.622,3.252-3.73,3.223
			c-11.922-0.168-10.03,1.828-12.675-9.195c-2.449-10.207-5.101-20.368-8.249-30.606c-1.639,6.575-3.291,13.146-4.905,19.724
			c-1.338,5.439-2.68,10.877-3.921,16.336c-0.6,2.639-2.02,3.918-4.79,3.787c-2.401-0.117-4.815-0.143-7.21,0.012
			c-2.189,0.141-3.172-0.938-3.647-2.854c-4.749-19.117-9.516-38.233-14.236-57.36c-0.28-1.133-0.198-2.354-0.317-3.982
			c3.998,0,7.811-0.244,11.554,0.153c1.062,0.112,2.505,1.954,2.794,3.227c2.785,12.272,5.358,24.593,8.002,36.898
			c0.043,0.197,0.192,0.371,0.254,0.486c3.201-11.534,6.359-23.14,9.658-34.706c1.717-6.026,4.687-7.678,10.662-5.93
			c0.961,0.281,1.961,1.68,2.274,2.755c3.376,11.67,6.619,23.38,9.909,35.075C277.156,266.707,277.472,267.598,278.004,269.264z"/>
		<path fill-rule="evenodd" clip-rule="evenodd" fill="#C0C0C0" d="M262.476,333.92c11.478,6.811,13.318,20.145,4.102,28.41
			c-4.481,4.021-10.177,5.363-15.917,5.668c-7.514,0.393-15.064,0.045-22.598,0.127c-2.072,0.023-2.923-0.609-2.916-2.797
			c0.058-19.545,0.057-39.09,0-58.637c-0.006-2.174,0.818-2.83,2.903-2.811c7.969,0.082,15.946-0.176,23.91,0.096
			c6.524,0.223,12.47,2.443,16.151,8.178C272.264,318.621,271.704,327.703,262.476,333.92z M239.704,355.729
			c3.606,0,6.876,0.176,10.12-0.041c4.46-0.297,7.121-2.787,7.495-6.592c0.383-3.85-1.857-7.643-5.761-8.217
			c-3.876-0.572-7.903-0.125-11.854-0.125C239.704,345.764,239.704,350.529,239.704,355.729z M239.572,330.158
			c2.671,0,5.048,0.002,7.426,0c0.655-0.004,1.321,0.053,1.962-0.039c3.258-0.471,6.111-3.176,6.395-6.002
			c0.37-3.695-1.063-6.797-4.263-7.488c-3.72-0.801-7.604-0.834-11.52-1.209C239.572,320.691,239.572,325.16,239.572,330.158z"/>
		<path fill-rule="evenodd" clip-rule="evenodd" fill="#C0C0C0" d="M470.772,227.821c0,8.215,0,16.042,0,24.068
			c7.174,0,13.896,0,21.146,0c0-7.92,0-15.829,0-24.061c4.534,0,8.555-0.135,12.554,0.121c0.732,0.047,1.875,1.631,1.954,2.578
			c0.262,3.15,0.141,6.332,0.141,9.502c-0.006,15.744-0.016,31.485-0.033,47.226c-0.004,4.631-0.13,4.742-4.871,4.748
			c-1.749,0-3.501,0.002-5.248,0c-4.265-0.008-4.643-0.303-4.679-4.656c-0.052-6.553,0.022-13.105,0.04-19.66
			c0.002-0.535,0-1.068,0-1.764c-6.995,0-13.842,0-20.91,0c0,7.291-0.094,14.57,0.042,21.844c0.06,3.051-0.937,4.482-4.142,4.27
			c-2.612-0.172-5.246-0.033-7.869-0.039c-1.983-0.002-2.861-0.83-2.854-2.975c0.063-19.463,0.057-38.92,0.007-58.38
			c-0.005-2.119,0.753-2.926,2.891-2.856C462.639,227.907,466.346,227.821,470.772,227.821z"/>
		<path fill-rule="evenodd" clip-rule="evenodd" fill="#C0C0C0" d="M305.093,303.912c8.106,0.1,7.806-1.307,10.79,7.791
			c5.807,17.707,11.639,35.406,17.608,53.057c0.865,2.564-0.158,3.213-2.208,3.299c-2.837,0.117-5.687,0.131-8.52-0.004
			c-2.365-0.117-3.815-1.252-4.498-3.803c-2.331-8.701-2.43-8.67-11.357-8.684c-3.278-0.004-6.56,0.059-9.83-0.078
			c-1.606-0.068-2.326,0.363-2.642,2.025c-0.42,2.209-1.295,4.332-1.814,6.529c-0.67,2.84-2.313,4.189-5.266,4.068
			c-2.401-0.098-4.808,0.01-7.21-0.031c-3.376-0.057-4.068-0.975-3.025-4.104c5.684-17.049,11.39-34.09,17.09-51.133
			c0.171-0.51,0.36-1.016,0.538-1.521C297.648,303.02,296.417,303.945,305.093,303.912z M297.979,343.104c4.899,0,9.536,0,14.387,0
			c-2.304-7.346-4.542-14.479-6.988-22.281C302.792,328.613,300.401,335.809,297.979,343.104z"/>
		<path fill-rule="evenodd" clip-rule="evenodd" fill="#C0C0C0" d="M315.185,279.541c-0.784,2.891-1.595,5.563-2.224,8.275
			c-0.662,2.859-2.362,4.227-5.275,4.191c-2.402-0.029-4.812,0.066-7.21-0.025c-3.108-0.123-3.745-0.982-2.813-3.82
			c6.263-19.045,12.565-38.079,18.821-57.126c0.753-2.287,2.19-3.306,4.592-3.234c2.839,0.082,5.685,0.124,8.52-0.012
			c2.844-0.139,4.367,1.078,5.253,3.775c5.553,16.88,11.209,33.729,16.83,50.587c0.716,2.148,1.283,4.363,2.176,6.439
			c0.96,2.232-0.096,3.213-1.997,3.338c-3.047,0.195-6.153,0.313-9.158-0.094c-1.24-0.168-2.407-1.676-3.374-2.779
			c-0.609-0.693-0.847-1.746-1.145-2.668c-2.226-6.846-2.218-6.848-9.482-6.848C324.33,279.541,319.964,279.541,315.185,279.541z
			 M332.931,267.521c-2.345-7.416-4.619-14.593-6.892-21.772c-0.209-0.004-0.419-0.008-0.626-0.011
			c-2.284,7.183-4.569,14.365-6.928,21.783C323.622,267.521,328.072,267.521,332.931,267.521z"/>
		<path fill-rule="evenodd" clip-rule="evenodd" fill="#C0C0C0" d="M407.569,317.262c0,3.826,0,7.5,0,11.578
			c5.987,0,11.852,0.135,17.702-0.057c2.825-0.094,3.831,0.834,3.858,3.666c0.086,9.461,0.162,9.461-9.389,9.463
			c-3.928,0-7.853,0-12.308,0c0,2.1,0,4.119,0,6.141c0,1.959,0,3.914,0,6.424c4.351,0,8.559,0.002,12.764-0.004
			c2.947-0.002,5.898-0.004,8.847-0.031c1.871-0.016,2.785,0.783,2.728,2.75c-0.081,2.727-0.081,5.459-0.002,8.188
			c0.054,1.99-0.893,2.721-2.764,2.719c-11.357-0.016-22.718-0.021-34.074,0.008c-2.519,0.008-2.354-1.783-2.363-3.383
			c-0.052-6.66-0.042-13.32-0.052-19.98c-0.016-12.121-0.021-24.242-0.039-36.363c-0.005-4.434,0.015-4.467,4.252-4.467
			c10.487-0.002,20.973,0.078,31.456-0.053c2.676-0.035,3.604,0.766,3.646,3.492c0.148,9.576,0.236,9.572-9.296,9.582
			c-4.693,0.002-9.391,0.023-14.085,0.051C408.25,316.984,408.05,317.105,407.569,317.262z"/>
		<path fill-rule="evenodd" clip-rule="evenodd" fill="#C0C0C0" d="M342.85,352.006c6.409,1.332,12.131,2.699,17.92,3.619
			c1.66,0.264,3.65-0.486,5.269-1.24c4.367-2.037,4.843-6.775,0.682-9.129c-4.282-2.42-8.978-4.123-13.53-6.045
			c-7.357-3.105-12.606-7.846-13.361-16.363c-0.91-10.293,5.523-17.664,14.772-19.447c8.145-1.574,16.173-0.125,23.797,3.307
			c2.154,0.971,2.678,2.266,1.686,4.381c-1.091,2.334-1.453,5.742-3.242,6.787c-1.552,0.91-4.628-0.963-7.072-1.344
			c-2.884-0.449-5.81-0.842-8.715-0.848c-3.005-0.002-6.097,2.508-6.469,5.053c-0.474,3.234,1.63,5.076,4.204,6.238
			c3.241,1.463,6.653,2.543,9.942,3.904c6.496,2.678,12.274,6.299,14.336,13.537c2.864,10.045-2.989,19.98-13.313,23.01
			c-9.199,2.697-18,1.285-26.421-2.902c-4.171-2.074-4.481-3.207-2.729-7.654C341.346,354.98,342.304,353.178,342.85,352.006z"/>
		<path fill-rule="evenodd" clip-rule="evenodd" fill="#C0C0C0" d="M447.656,234.522c-1.747,2.99-3.518,6.031-4.998,8.568
			c-4.254-1.08-7.825-2.619-11.458-2.788c-9.248-0.436-14.75,3.851-17.354,12.868c-2.222,7.697-1.032,14.921,4.286,20.962
			c5.285,6.004,13.271,7.268,20.813,3.9c1.26-0.563,2.491-1.199,3.969-1.912c1.542,2.619,3.149,5.021,4.367,7.609
			c0.396,0.846,0.144,2.846-0.441,3.16c-3.847,2.086-7.702,4.883-11.854,5.541c-13.553,2.146-24.837-1.725-32.556-14.516
			c-10.291-17.058-5.006-44.175,19.676-50.515C430.943,225.13,443.235,228.251,447.656,234.522z"/>
		<path fill-rule="evenodd" clip-rule="evenodd" fill="#C0C0C0" d="M297.066,150.421c4.96,0,9.337-0.212,13.671,0.133
			c1.217,0.098,2.743,1.602,3.38,2.843c3.983,7.776,7.759,15.662,11.824,23.962c0.624-1.1,1.145-1.934,1.584-2.805
			c3.492-6.915,7.094-13.78,10.39-20.787c1.217-2.586,2.879-3.479,5.565-3.381c3.483,0.127,6.974,0.031,11.101,0.031
			c-0.552,1.578-0.849,2.878-1.435,4.025c-6.207,12.104-12.493,24.162-18.654,36.283c-0.704,1.381-1.082,3.058-1.131,4.612
			c-0.176,5.346-0.039,10.701-0.207,16.048c-0.136,4.328-0.463,4.523-4.78,4.525c-2.184,0-4.375-0.113-6.55,0.029
			c-2.458,0.157-3.36-1.205-3.474-3.295c-0.278-5.227-0.658-10.462-0.607-15.689c0.032-3.254-0.688-6.104-2.152-8.969
			c-5.85-11.438-11.578-22.936-17.33-34.424C297.844,152.731,297.591,151.815,297.066,150.421z"/>
		<path fill-rule="evenodd" clip-rule="evenodd" fill="#C0C0C0" d="M379.289,241.306c0,12.984,0.003,25.423-0.002,37.86
			c-0.002,3.166-0.111,6.334-0.043,9.5c0.052,2.396-1.092,3.365-3.364,3.338c-1.967-0.025-3.932-0.004-5.898-0.004
			c-5.234,0-5.658-0.422-5.666-5.854c-0.016-13.322-0.01-26.646-0.012-39.966c0-1.502,0-3.004,0-4.888
			c-4.046,0-7.835-0.103-11.618,0.038c-2.295,0.087-3.811-0.346-3.766-3.048c0.054-3.411,0.012-6.823,0.012-10.346
			c15.534,0,30.471,0,46.035,0c0,3.999,0.088,7.929-0.102,11.846c-0.027,0.542-1.414,1.43-2.192,1.454
			C388.332,241.38,383.987,241.306,379.289,241.306z"/>
	</g>
	<g>
		<path fill-rule="evenodd" clip-rule="evenodd" fill="#E50914" d="M72.766,318.705c4.961,1.244,9.22,2.723,13.602,3.34
			c15.016,2.115,29.673,1.049,43.234-6.5c12.582-7.002,22.823-16.523,30.082-29.072c3.199-5.531,4.256-5.904,11.537-3.096
			c-3.081,4.457-5.757,9.008-9.088,13.016c-10.555,12.703-23.621,21.965-39.207,27.602c-11.498,4.158-23.416,5.959-35.527,5.01
			c-18.605-1.459-35.17-8.223-49.631-20.264c-15.41-12.83-25.649-28.922-29.934-48.339c-6.039-27.369-0.883-52.689,16.193-75.258
			c13.71-18.121,32.041-29.215,54.113-33.273c25.648-4.713,49.232,0.949,70.151,16.99c16.007,12.275,26.362,28.212,31.677,47.543
			c4.801,17.465,3.887,34.752-1.836,51.849c-1.605,4.795-5.4,6.445-11.643,4.791c-12.811-3.402-25.574-6.982-38.366-10.458
			c-2.289-0.621-4.603-1.169-6.932-1.618c-4.661-0.897-5.634-0.412-7.726,4.043c-4.358,9.289-8.422,18.721-13.023,27.887
			C94.584,304.559,85.249,312.77,72.766,318.705z M85.538,278.072c0.261-11.344-8.508-19.089-18.579-18.867
			c-11.194,0.247-18.184,6.844-18.234,18.541c-0.05,11.445,7.658,18.564,17.992,18.582
			C75.946,296.342,85.843,289.559,85.538,278.072z M94.201,172.988c-8.114-1.064-18.339,7.683-18.142,18.892
			c0.214,12.123,8.084,17.77,18.094,17.801c11.404,0.038,18.152-8.977,18.473-17.287
			C113.051,181.376,103.149,172.097,94.201,172.988z M47.892,244.092c10.47,0.026,17.517-7.238,18.079-17.44
			c0.576-10.476-8.154-19.057-17.515-18.932c-10.299,0.139-17.778,7.625-18.405,17.462C29.379,235.72,38.292,245.37,47.892,244.092z
			 M140.58,244.097c9.874,0.777,17.886-8.506,17.934-18.134c0.042-8.693-8.372-18.628-17.767-18.297
			c-10.472,0.37-18.438,7.488-18.438,17.722C122.309,236.755,130.422,243.872,140.58,244.097z M104.557,237.508
			c0.021-6.093-4.515-10.741-10.469-10.724c-5.66,0.016-10.678,4.947-10.664,10.48c0.016,5.734,5.004,10.738,10.727,10.762
			C99.883,248.05,104.534,243.347,104.557,237.508z"/>
		<path fill-rule="evenodd" clip-rule="evenodd" fill="#E50914" d="M120.887,270.477c2.234,0.887,4.151,1.521,5.926,2.438
			c0.435,0.225,0.709,1.451,0.531,2.063c-1.589,5.416-4.533,6.859-9.74,4.871c-0.376-0.145-0.979-0.559-0.947-0.766
			c0.334-2.18,0.535-4.436,1.297-6.479C118.295,271.688,119.813,271.213,120.887,270.477z"/>
		<path fill-rule="evenodd" clip-rule="evenodd" fill="#E50914" d="M119.944,290.076c-1.604,3.146-2.569,5.428-3.912,7.457
			c-0.482,0.73-1.926,1.273-2.846,1.168c-1.767-0.203-3.474-0.93-6.182-1.729c1.799-2.688,2.937-5.83,5.17-7.25
			C113.832,288.668,116.912,289.846,119.944,290.076z"/>
		<path fill-rule="evenodd" clip-rule="evenodd" fill="#E50914" d="M108.844,308.213c-1.094,1.686-1.935,3.164-2.952,4.512
			c-2.149,2.844-5.376,3.271-8.216,1.143c-0.402-0.301-1.003-0.99-0.899-1.209c0.942-1.986,1.81-4.072,3.155-5.768
			c0.582-0.732,2.324-1.008,3.389-0.785C105.169,306.498,106.903,307.438,108.844,308.213z"/>
	</g>
</g>
</svg>
